<svg width="512" height="512" viewBox="0 0 512 512" fill="none" xmlns="http://www.w3.org/2000/svg">
<path d="M340.697 308.697H323.844L317.871 302.937C331.203 287.449 340.947 269.205 346.405 249.51C351.863 229.816 352.901 209.159 349.444 189.017C339.417 129.711 289.924 82.3507 230.191 75.0974C209.191 72.4406 187.861 74.6232 167.834 81.4779C147.807 88.3327 129.614 99.678 114.646 114.646C99.678 129.614 88.3327 147.807 81.4779 167.834C74.6232 187.861 72.4406 209.191 75.0974 230.191C82.3507 289.924 129.711 339.417 189.017 349.444C209.159 352.901 229.816 351.863 249.51 346.405C269.205 340.947 287.449 331.203 302.937 317.871L308.697 323.844V340.697L399.364 431.364C408.111 440.111 422.404 440.111 431.151 431.364C439.897 422.617 439.897 408.324 431.151 399.577L340.697 308.697ZM212.697 308.697C159.577 308.697 116.697 265.817 116.697 212.697C116.697 159.577 159.577 116.697 212.697 116.697C265.817 116.697 308.697 159.577 308.697 212.697C308.697 265.817 265.817 308.697 212.697 308.697Z" fill="white"/>
</svg>
