<svg width="24" height="24" viewBox="0 0 24 24" fill="none" xmlns="http://www.w3.org/2000/svg">
<path d="M23.2729 15.8865L19.2 14.25V21H23.4C23.7315 21 24 20.7483 24 20.4375V16.9204C24 16.7003 23.9311 16.485 23.8019 16.3012C23.6726 16.1174 23.4887 15.9732 23.2729 15.8865ZM0 16.9204V20.4375C0 20.7483 0.2685 21 0.6 21H4.8V14.25L0.727125 15.8865C0.511315 15.9732 0.327394 16.1174 0.198146 16.3012C0.0688987 16.485 4.96502e-06 16.7003 0 16.9204ZM17.4173 11.6723L15.6 10.6499V6.60802C15.6 6.30954 15.4736 6.02372 15.2483 5.81243L12.4241 3.1648C12.1898 2.94507 11.8099 2.94507 11.5759 3.1648L8.75175 5.81243C8.52675 6.02336 8.4 6.30954 8.4 6.60802V10.6499L6.58275 11.6723C6.40503 11.7722 6.25795 11.9136 6.15582 12.0827C6.0537 12.2517 6.00001 12.4427 6 12.637V21H9.6V17.625C9.6 16.3822 10.6748 15.375 12 15.375C13.3253 15.375 14.4 16.3822 14.4 17.625V21H18V12.637C18 12.2418 17.7788 11.8755 17.4173 11.6723Z" fill="#4C87B2"/>
</svg>
