<svg width="512" height="512" viewBox="0 0 512 512" fill="none" xmlns="http://www.w3.org/2000/svg">
<rect x="74.5" y="14.5" width="362.66" height="483" rx="42.5" stroke="white" stroke-width="15"/>
<path d="M191.5 20.5H323.5V41C323.5 64.4721 304.472 83.5 281 83.5H234C210.528 83.5 191.5 64.4721 191.5 41V20.5Z" stroke="white" stroke-width="15"/>
<rect x="142" y="147" width="58" height="58" rx="7" stroke="white" stroke-width="8"/>
<path d="M162 172.5L173.483 182.342C174.831 183.498 176.881 183.237 177.896 181.781L214 130" stroke="white" stroke-width="15" stroke-linecap="round"/>
<path d="M240 169.5L373 169.5" stroke="white" stroke-width="15" stroke-linecap="round"/>
<rect x="142" y="250" width="58" height="58" rx="7" stroke="white" stroke-width="8"/>
<path d="M162 275.5L173.483 285.342C174.831 286.498 176.881 286.237 177.896 284.781L214 233" stroke="white" stroke-width="15" stroke-linecap="round"/>
<path d="M240 272.5L373 272.5" stroke="white" stroke-width="15" stroke-linecap="round"/>
<rect x="142" y="353" width="58" height="58" rx="7" stroke="white" stroke-width="8"/>
<path d="M162 378.5L173.483 388.342C174.831 389.498 176.881 389.237 177.896 387.781L214 336" stroke="white" stroke-width="15" stroke-linecap="round"/>
<path d="M240 375.5L373 375.5" stroke="white" stroke-width="15" stroke-linecap="round"/>
</svg>
