<svg width="512" height="512" viewBox="0 0 512 512" fill="none" xmlns="http://www.w3.org/2000/svg">
<g clip-path="url(#clip0_3748_173)">
<rect x="7.5" y="125.5" width="497" height="260" rx="42.5" stroke="white" stroke-width="15"/>
<g clip-path="url(#clip1_3748_173)">
<path d="M330.065 317.581C338.611 315.242 347.983 320.789 350.398 329.616L360.384 366.108C364.916 358.449 376.55 354.477 386.675 361.388C393.503 353.906 405.636 355.355 410.86 361.232C427.736 353.088 438.83 362.198 443.896 380.711C444.171 381.714 445.151 385.583 445.426 386.577C451.685 409.209 441.88 417.755 443.942 435.59C444.456 440.035 441.669 444.174 437.396 445.344L375.355 462.322L375.355 462.321C368.711 464.135 361.313 461.997 356.649 456.258C349.06 446.988 329.369 426.242 317.926 424.612C310.565 423.563 305.268 419.675 303.403 412.873C299.975 400.367 310.322 388.292 323.191 390.126C326.573 390.608 330.052 391.514 333.62 392.832L318.694 338.292C316.349 329.721 321.644 319.885 330.065 317.581ZM371.797 469.581L441.244 450.576C446.038 449.264 450.999 452.128 452.325 456.972L457.126 474.514C458.451 479.359 455.639 484.349 450.845 485.661L381.399 504.666C376.604 505.978 371.643 503.115 370.317 498.27L365.517 480.728C364.191 475.883 367.003 470.893 371.797 469.581ZM435.363 463.185C431.368 464.278 429.025 468.437 430.13 472.474C431.234 476.511 435.369 478.897 439.364 477.804C443.359 476.71 445.702 472.552 444.598 468.515C443.493 464.478 439.359 462.092 435.363 463.185Z" fill="white"/>
</g>
<mask id="path-3-outside-1_3748_173" maskUnits="userSpaceOnUse" x="76" y="221" width="367" height="75" fill="black">
<rect fill="white" x="76" y="221" width="367" height="75"/>
<path d="M117.393 293H77.9369V224.456H117.393V236.36H92.4329V251.432H115.665V263.336H92.4329V281H117.393V293ZM187.048 293H170.44L154.504 267.08L138.568 293H123.016L145.768 257.672L124.456 224.456H140.488L155.272 249.128L169.768 224.456H185.416L163.912 258.44L187.048 293ZM217.575 224.456C226.407 224.456 232.839 226.376 236.871 230.216C240.967 233.992 243.015 239.208 243.015 245.864C243.015 249.896 242.183 253.64 240.519 257.096C238.855 260.552 236.071 263.336 232.167 265.448C228.327 267.56 223.079 268.616 216.423 268.616H210.183V293H195.687V224.456H217.575ZM216.807 236.36H210.183V256.712H214.983C219.079 256.712 222.311 255.912 224.679 254.312C227.111 252.648 228.327 249.992 228.327 246.344C228.327 239.688 224.487 236.36 216.807 236.36ZM318.176 258.632C318.176 265.736 316.992 271.944 314.624 277.256C312.32 282.504 308.736 286.6 303.872 289.544C299.072 292.488 292.96 293.96 285.536 293.96C278.112 293.96 271.968 292.488 267.104 289.544C262.304 286.6 258.72 282.472 256.352 277.16C254.048 271.848 252.896 265.64 252.896 258.536C252.896 251.432 254.048 245.256 256.352 240.008C258.72 234.76 262.304 230.696 267.104 227.816C271.968 224.872 278.144 223.4 285.632 223.4C293.056 223.4 299.168 224.872 303.968 227.816C308.768 230.696 312.32 234.792 314.624 240.104C316.992 245.352 318.176 251.528 318.176 258.632ZM268.16 258.632C268.16 265.8 269.536 271.464 272.288 275.624C275.04 279.72 279.456 281.768 285.536 281.768C291.744 281.768 296.192 279.72 298.88 275.624C301.568 271.464 302.912 265.8 302.912 258.632C302.912 251.464 301.568 245.832 298.88 241.736C296.192 237.576 291.776 235.496 285.632 235.496C279.488 235.496 275.04 237.576 272.288 241.736C269.536 245.832 268.16 251.464 268.16 258.632ZM352.342 224.456C361.686 224.456 368.566 226.152 372.982 229.544C377.462 232.936 379.702 238.088 379.702 245C379.702 248.136 379.094 250.888 377.878 253.256C376.726 255.56 375.158 257.544 373.174 259.208C371.254 260.808 369.174 262.12 366.934 263.144L387.094 293H370.966L354.646 266.696H346.87V293H332.374V224.456H352.342ZM351.286 236.36H346.87V254.888H351.574C356.374 254.888 359.798 254.088 361.846 252.488C363.958 250.888 365.014 248.52 365.014 245.384C365.014 242.12 363.894 239.816 361.654 238.472C359.414 237.064 355.958 236.36 351.286 236.36ZM422.149 293H407.653V236.552H389.029V224.456H440.773V236.552H422.149V293Z"/>
</mask>
<path d="M117.393 293V294.5H118.893V293H117.393ZM77.9369 293H76.4369V294.5H77.9369V293ZM77.9369 224.456V222.956H76.4369V224.456H77.9369ZM117.393 224.456H118.893V222.956H117.393V224.456ZM117.393 236.36V237.86H118.893V236.36H117.393ZM92.4329 236.36V234.86H90.9329V236.36H92.4329ZM92.4329 251.432H90.9329V252.932H92.4329V251.432ZM115.665 251.432H117.165V249.932H115.665V251.432ZM115.665 263.336V264.836H117.165V263.336H115.665ZM92.4329 263.336V261.836H90.9329V263.336H92.4329ZM92.4329 281H90.9329V282.5H92.4329V281ZM117.393 281H118.893V279.5H117.393V281ZM117.393 291.5H77.9369V294.5H117.393V291.5ZM79.4369 293V224.456H76.4369V293H79.4369ZM77.9369 225.956H117.393V222.956H77.9369V225.956ZM115.893 224.456V236.36H118.893V224.456H115.893ZM117.393 234.86H92.4329V237.86H117.393V234.86ZM90.9329 236.36V251.432H93.9329V236.36H90.9329ZM92.4329 252.932H115.665V249.932H92.4329V252.932ZM114.165 251.432V263.336H117.165V251.432H114.165ZM115.665 261.836H92.4329V264.836H115.665V261.836ZM90.9329 263.336V281H93.9329V263.336H90.9329ZM92.4329 282.5H117.393V279.5H92.4329V282.5ZM115.893 281V293H118.893V281H115.893ZM187.048 293V294.5H189.857L188.294 292.166L187.048 293ZM170.44 293L169.162 293.786L169.601 294.5H170.44V293ZM154.504 267.08L155.781 266.294L154.504 264.216L153.226 266.294L154.504 267.08ZM138.568 293V294.5H139.406L139.845 293.786L138.568 293ZM123.016 293L121.755 292.188L120.265 294.5H123.016V293ZM145.768 257.672L147.029 258.484L147.551 257.674L147.03 256.862L145.768 257.672ZM124.456 224.456V222.956H121.711L123.193 225.266L124.456 224.456ZM140.488 224.456L141.774 223.685L141.337 222.956H140.488V224.456ZM155.272 249.128L153.985 249.899L155.284 252.067L156.565 249.888L155.272 249.128ZM169.768 224.456V222.956H168.909L168.474 223.696L169.768 224.456ZM185.416 224.456L186.683 225.258L188.14 222.956H185.416V224.456ZM163.912 258.44L162.644 257.638L162.122 258.463L162.665 259.274L163.912 258.44ZM187.048 291.5H170.44V294.5H187.048V291.5ZM171.717 292.214L155.781 266.294L153.226 267.866L169.162 293.786L171.717 292.214ZM153.226 266.294L137.29 292.214L139.845 293.786L155.781 267.866L153.226 266.294ZM138.568 291.5H123.016V294.5H138.568V291.5ZM124.277 293.812L147.029 258.484L144.507 256.86L121.755 292.188L124.277 293.812ZM147.03 256.862L125.718 223.646L123.193 225.266L144.505 258.482L147.03 256.862ZM124.456 225.956H140.488V222.956H124.456V225.956ZM139.201 225.227L153.985 249.899L156.558 248.357L141.774 223.685L139.201 225.227ZM156.565 249.888L171.061 225.216L168.474 223.696L153.978 248.368L156.565 249.888ZM169.768 225.956H185.416V222.956H169.768V225.956ZM184.148 223.654L162.644 257.638L165.179 259.242L186.683 225.258L184.148 223.654ZM162.665 259.274L185.801 293.834L188.294 292.166L165.158 257.606L162.665 259.274ZM236.871 230.216L235.836 231.302L235.845 231.311L235.854 231.319L236.871 230.216ZM240.519 257.096L241.87 257.747L241.87 257.747L240.519 257.096ZM232.167 265.448L231.453 264.129L231.444 264.134L232.167 265.448ZM210.183 268.616V267.116H208.683V268.616H210.183ZM210.183 293V294.5H211.683V293H210.183ZM195.687 293H194.187V294.5H195.687V293ZM195.687 224.456V222.956H194.187V224.456H195.687ZM210.183 236.36V234.86H208.683V236.36H210.183ZM210.183 256.712H208.683V258.212H210.183V256.712ZM224.679 254.312L225.519 255.555L225.526 255.55L224.679 254.312ZM217.575 225.956C226.238 225.956 232.208 227.847 235.836 231.302L237.905 229.13C233.47 224.905 226.576 222.956 217.575 222.956V225.956ZM235.854 231.319C239.582 234.756 241.515 239.538 241.515 245.864H244.515C244.515 238.878 242.351 233.228 237.888 229.113L235.854 231.319ZM241.515 245.864C241.515 249.683 240.729 253.203 239.167 256.445L241.87 257.747C243.637 254.077 244.515 250.109 244.515 245.864H241.515ZM239.167 256.445C237.661 259.574 235.125 262.142 231.453 264.129L232.881 266.767C237.017 264.53 240.049 261.53 241.87 257.747L239.167 256.445ZM231.444 264.134C227.911 266.077 222.946 267.116 216.423 267.116V270.116C223.211 270.116 228.743 269.043 232.89 266.762L231.444 264.134ZM216.423 267.116H210.183V270.116H216.423V267.116ZM208.683 268.616V293H211.683V268.616H208.683ZM210.183 291.5H195.687V294.5H210.183V291.5ZM197.187 293V224.456H194.187V293H197.187ZM195.687 225.956H217.575V222.956H195.687V225.956ZM216.807 234.86H210.183V237.86H216.807V234.86ZM208.683 236.36V256.712H211.683V236.36H208.683ZM210.183 258.212H214.983V255.212H210.183V258.212ZM214.983 258.212C219.254 258.212 222.817 257.381 225.519 255.555L223.839 253.069C221.805 254.443 218.904 255.212 214.983 255.212V258.212ZM225.526 255.55C228.465 253.539 229.827 250.354 229.827 246.344H226.827C226.827 249.63 225.756 251.757 223.832 253.074L225.526 255.55ZM229.827 246.344C229.827 242.724 228.773 239.754 226.429 237.722C224.127 235.727 220.83 234.86 216.807 234.86V237.86C220.464 237.86 222.927 238.657 224.464 239.99C225.961 241.286 226.827 243.308 226.827 246.344H229.827ZM314.624 277.256L313.254 276.645L313.251 276.653L314.624 277.256ZM303.872 289.544L303.095 288.261L303.088 288.265L303.872 289.544ZM267.104 289.544L266.32 290.823L266.327 290.827L267.104 289.544ZM256.352 277.16L254.976 277.757L254.979 277.764L254.982 277.771L256.352 277.16ZM256.352 240.008L254.985 239.391L254.982 239.398L254.979 239.405L256.352 240.008ZM267.104 227.816L267.876 229.102L267.881 229.099L267.104 227.816ZM303.968 227.816L303.184 229.095L303.19 229.098L303.196 229.102L303.968 227.816ZM314.624 240.104L313.248 240.701L313.252 240.711L313.257 240.721L314.624 240.104ZM272.288 275.624L271.037 276.452L271.043 276.461L272.288 275.624ZM298.88 275.624L300.134 276.447L300.14 276.438L298.88 275.624ZM298.88 241.736L297.62 242.55L297.626 242.559L298.88 241.736ZM272.288 241.736L273.533 242.573L273.539 242.564L272.288 241.736ZM316.676 258.632C316.676 265.571 315.52 271.563 313.254 276.645L315.994 277.867C318.465 272.325 319.676 265.901 319.676 258.632H316.676ZM313.251 276.653C311.07 281.621 307.693 285.478 303.095 288.261L304.649 290.827C309.779 287.722 313.571 283.387 315.998 277.859L313.251 276.653ZM303.088 288.265C298.588 291.025 292.769 292.46 285.536 292.46V295.46C293.151 295.46 299.556 293.951 304.656 290.823L303.088 288.265ZM285.536 292.46C278.304 292.46 272.449 291.026 267.881 288.261L266.327 290.827C271.487 293.95 277.92 295.46 285.536 295.46V292.46ZM267.888 288.265C263.355 285.485 259.971 281.594 257.722 276.549L254.982 277.771C257.469 283.35 261.253 287.715 266.32 290.823L267.888 288.265ZM257.728 276.563C255.522 271.477 254.396 265.48 254.396 258.536H251.396C251.396 265.8 252.574 272.219 254.976 277.757L257.728 276.563ZM254.396 258.536C254.396 251.591 255.522 245.629 257.726 240.611L254.979 239.405C252.574 244.883 251.396 251.273 251.396 258.536H254.396ZM257.719 240.625C259.966 235.647 263.346 231.82 267.876 229.102L266.332 226.53C261.262 229.572 257.475 233.873 254.985 239.391L257.719 240.625ZM267.881 229.099C272.447 226.335 278.333 224.9 285.632 224.9V221.9C277.955 221.9 271.489 223.409 266.327 226.533L267.881 229.099ZM285.632 224.9C292.865 224.9 298.684 226.335 303.184 229.095L304.752 226.537C299.652 223.409 293.247 221.9 285.632 221.9V224.9ZM303.196 229.102C307.718 231.815 311.064 235.666 313.248 240.701L316 239.507C313.576 233.918 309.818 229.577 304.74 226.53L303.196 229.102ZM313.257 240.721C315.519 245.735 316.676 251.692 316.676 258.632H319.676C319.676 251.364 318.465 244.969 315.991 239.487L313.257 240.721ZM266.66 258.632C266.66 265.972 268.066 271.961 271.037 276.452L273.539 274.796C271.006 270.967 269.66 265.628 269.66 258.632H266.66ZM271.043 276.461C274.14 281.07 279.088 283.268 285.536 283.268V280.268C279.824 280.268 275.94 278.37 273.533 274.787L271.043 276.461ZM285.536 283.268C292.097 283.268 297.094 281.079 300.134 276.447L297.626 274.801C295.29 278.361 291.392 280.268 285.536 280.268V283.268ZM300.14 276.438C303.04 271.95 304.412 265.966 304.412 258.632H301.412C301.412 265.634 300.096 270.978 297.62 274.81L300.14 276.438ZM304.412 258.632C304.412 251.3 303.041 245.342 300.134 240.913L297.626 242.559C300.095 246.322 301.412 251.628 301.412 258.632H304.412ZM300.14 240.922C297.107 236.229 292.145 233.996 285.632 233.996V236.996C291.407 236.996 295.277 238.923 297.62 242.55L300.14 240.922ZM285.632 233.996C279.118 233.996 274.133 236.228 271.037 240.908L273.539 242.564C275.947 238.924 279.858 236.996 285.632 236.996V233.996ZM271.043 240.899C268.065 245.331 266.66 251.294 266.66 258.632H269.66C269.66 251.634 271.007 246.333 273.533 242.573L271.043 240.899ZM372.982 229.544L372.069 230.734L372.077 230.74L372.982 229.544ZM377.878 253.256L376.544 252.571L376.54 252.578L376.537 252.585L377.878 253.256ZM373.174 259.208L374.135 260.36L374.138 260.357L373.174 259.208ZM366.934 263.144L366.311 261.78L364.7 262.516L365.691 263.983L366.934 263.144ZM387.094 293V294.5H389.917L388.338 292.161L387.094 293ZM370.966 293L369.692 293.791L370.132 294.5H370.966V293ZM354.646 266.696L355.921 265.905L355.481 265.196H354.646V266.696ZM346.87 266.696V265.196H345.37V266.696H346.87ZM346.87 293V294.5H348.37V293H346.87ZM332.374 293H330.874V294.5H332.374V293ZM332.374 224.456V222.956H330.874V224.456H332.374ZM346.87 236.36V234.86H345.37V236.36H346.87ZM346.87 254.888H345.37V256.388H346.87V254.888ZM361.846 252.488L360.941 251.292L360.932 251.299L360.923 251.306L361.846 252.488ZM361.654 238.472L360.856 239.742L360.869 239.75L360.883 239.758L361.654 238.472ZM352.342 225.956C361.56 225.956 368.04 227.639 372.069 230.734L373.896 228.354C369.093 224.665 361.813 222.956 352.342 222.956V225.956ZM372.077 230.74C376.096 233.783 378.202 238.437 378.202 245H381.202C381.202 237.739 378.829 232.089 373.888 228.348L372.077 230.74ZM378.202 245C378.202 247.94 377.633 250.449 376.544 252.571L379.213 253.941C380.555 251.327 381.202 248.332 381.202 245H378.202ZM376.537 252.585C375.477 254.705 374.038 256.526 372.21 258.059L374.138 260.357C376.279 258.562 377.976 256.415 379.22 253.927L376.537 252.585ZM372.214 258.056C370.395 259.572 368.428 260.812 366.311 261.78L367.558 264.508C369.921 263.428 372.114 262.044 374.135 260.36L372.214 258.056ZM365.691 263.983L385.851 293.839L388.338 292.161L368.178 262.305L365.691 263.983ZM387.094 291.5H370.966V294.5H387.094V291.5ZM372.241 292.209L355.921 265.905L353.372 267.487L369.692 293.791L372.241 292.209ZM354.646 265.196H346.87V268.196H354.646V265.196ZM345.37 266.696V293H348.37V266.696H345.37ZM346.87 291.5H332.374V294.5H346.87V291.5ZM333.874 293V224.456H330.874V293H333.874ZM332.374 225.956H352.342V222.956H332.374V225.956ZM351.286 234.86H346.87V237.86H351.286V234.86ZM345.37 236.36V254.888H348.37V236.36H345.37ZM346.87 256.388H351.574V253.388H346.87V256.388ZM351.574 256.388C356.462 256.388 360.313 255.589 362.77 253.67L360.923 251.306C359.283 252.587 356.287 253.388 351.574 253.388V256.388ZM362.752 253.684C365.31 251.746 366.514 248.892 366.514 245.384H363.514C363.514 248.148 362.607 250.03 360.941 251.292L362.752 253.684ZM366.514 245.384C366.514 241.745 365.235 238.871 362.426 237.186L360.883 239.758C362.554 240.761 363.514 242.495 363.514 245.384H366.514ZM362.453 237.202C359.853 235.568 356.052 234.86 351.286 234.86V237.86C355.864 237.86 358.976 238.56 360.856 239.742L362.453 237.202ZM422.149 293V294.5H423.649V293H422.149ZM407.653 293H406.153V294.5H407.653V293ZM407.653 236.552H409.153V235.052H407.653V236.552ZM389.029 236.552H387.529V238.052H389.029V236.552ZM389.029 224.456V222.956H387.529V224.456H389.029ZM440.773 224.456H442.273V222.956H440.773V224.456ZM440.773 236.552V238.052H442.273V236.552H440.773ZM422.149 236.552V235.052H420.649V236.552H422.149ZM422.149 291.5H407.653V294.5H422.149V291.5ZM409.153 293V236.552H406.153V293H409.153ZM407.653 235.052H389.029V238.052H407.653V235.052ZM390.529 236.552V224.456H387.529V236.552H390.529ZM389.029 225.956H440.773V222.956H389.029V225.956ZM439.273 224.456V236.552H442.273V224.456H439.273ZM440.773 235.052H422.149V238.052H440.773V235.052ZM420.649 236.552V293H423.649V236.552H420.649Z" fill="white" mask="url(#path-3-outside-1_3748_173)"/>
</g>
<defs>
<clipPath id="clip0_3748_173">
<rect width="512" height="512" fill="white"/>
</clipPath>
<clipPath id="clip1_3748_173">
<rect width="144" height="194" fill="white" transform="translate(281 331.008) rotate(-15.3049)"/>
</clipPath>
</defs>
</svg>
