<svg width="24" height="24" viewBox="0 0 24 24" fill="none" xmlns="http://www.w3.org/2000/svg">
<g clip-path="url(#clip0_3262_231)">
<path d="M21.265 2.0001H23.3351V20.4423H21.265V2.0001Z" fill="#4C87B2"/>
<path d="M16.9367 6.14019H19.0068V20.4423H16.9367V6.14019Z" fill="#4C87B2"/>
<path d="M12.6085 10.6566H14.6785V20.4423H12.6085V10.6566Z" fill="#4C87B2"/>
<path d="M8.28018 15.1731H10.3502V20.4423H8.28018V15.1731Z" fill="#4C87B2"/>
<path d="M3.9519 17.2432H6.02195V20.4423H3.9519V17.2432Z" fill="#4C87B2"/>
<path d="M0 21.1951H24.0878V23.0769H0V21.1951Z" fill="#4C87B2"/>
<path d="M18.1317 4.41208C17.716 4.4075 17.3828 4.06679 17.3873 3.65109L17.3955 2.91171L5.18638 14.8549C4.8149 15.2182 4.21917 15.2117 3.85579 14.8402C3.4924 14.4687 3.49896 13.873 3.87044 13.5096L16.1324 1.51474L15.2884 1.50544C14.8727 1.50087 14.5394 1.16016 14.544 0.744456C14.5486 0.328753 14.8893 -0.00453094 15.305 4.65941e-05L17.4273 0.0234169L18.9327 0.0392795L18.8927 3.66767C18.8882 4.08337 18.5475 4.41666 18.1317 4.41208Z" fill="#4C87B2"/>
</g>
<defs>
<clipPath id="clip0_3262_231">
<rect width="24" height="24" fill="white"/>
</clipPath>
</defs>
</svg>
