<svg width="512" height="512" viewBox="0 0 512 512" fill="none" xmlns="http://www.w3.org/2000/svg">
<path d="M399 207.428V76C399 60.5361 386.464 48 371 48H71C55.536 48 43 60.536 43 76V256.669C43 324.404 80.6154 386.535 140.633 417.933L200.015 449" stroke="white" stroke-width="15" stroke-linecap="round"/>
<path d="M132 180.5H315.5M132 276H287M264.9 413.118L413.416 267.542C414.576 266.405 416.431 266.398 417.6 267.526L470.306 318.383C471.512 319.547 471.531 321.473 470.348 322.66L324.778 468.72C324.276 469.223 323.611 469.532 322.902 469.591L267.249 474.229C265.5 474.375 264 472.995 264 471.24V415.26C264 414.454 264.324 413.682 264.9 413.118Z" stroke="white" stroke-width="15" stroke-linecap="round"/>
<path d="M366.5 319L422.5 373" stroke="white" stroke-width="15"/>
</svg>
