<svg width="512" height="512" viewBox="0 0 512 512" fill="none" xmlns="http://www.w3.org/2000/svg">
<path d="M233.116 233.116L124.421 124.42M124.421 124.42L95.8166 153.024L61.4916 84.3744L84.3749 61.4911L153.025 95.816L124.421 124.42ZM438.494 186.777C449.48 175.8 457.039 161.866 460.248 146.671C463.458 131.476 462.181 115.676 456.572 101.194L424.032 133.734H378.265V87.9671L410.805 55.427C396.322 49.8055 380.517 48.5176 365.314 51.7203C350.112 54.9229 336.17 62.4778 325.185 73.4646C314.201 84.4513 306.649 98.3955 303.45 113.598C300.251 128.801 301.542 144.606 307.167 159.088L159.112 307.166C144.63 301.542 128.825 300.25 113.622 303.449C98.4189 306.649 84.4747 314.201 73.488 325.185C62.5013 336.169 54.9464 350.112 51.7437 365.314C48.5411 380.516 49.8289 396.322 55.4504 410.805L87.9676 378.265H133.734V424.031L101.194 456.571C115.674 462.193 131.475 463.483 146.675 460.284C161.874 457.085 175.816 449.535 186.801 438.555C197.787 427.574 205.342 413.636 208.548 398.438C211.753 383.24 210.471 367.438 204.856 352.956L352.956 204.855C367.432 210.454 383.224 211.726 398.409 208.517C413.595 205.307 427.521 197.755 438.494 186.777Z" stroke="white" stroke-width="15" stroke-linecap="round" stroke-linejoin="round"/>
<path d="M251.355 313.205L379.593 441.443C382.463 444.318 385.871 446.599 389.623 448.155C393.375 449.711 397.397 450.512 401.458 450.512C405.52 450.512 409.542 449.711 413.294 448.155C417.046 446.599 420.454 444.318 423.323 441.443L441.447 423.32C444.322 420.45 446.603 417.042 448.159 413.29C449.715 409.538 450.516 405.516 450.516 401.455C450.516 397.393 449.715 393.371 448.159 389.619C446.603 385.867 444.322 382.459 441.447 379.59L313.209 251.352" stroke="white" stroke-width="15" stroke-linecap="round" stroke-linejoin="round"/>
</svg>
