<svg width="24" height="24" viewBox="0 0 24 24" fill="none" xmlns="http://www.w3.org/2000/svg">
<g clip-path="url(#clip0_3683_610)">
<path d="M20.3992 7.2V6H17.9992V2.4H3.59922V19.2H9.59922V24H13.4992H13.1992C12.5627 24 11.9523 23.7471 11.5022 23.2971C11.0521 22.847 10.7992 22.2365 10.7992 21.6V9.6C10.7992 8.96348 11.0521 8.35303 11.5022 7.90294C11.9523 7.45286 12.5627 7.2 13.1992 7.2H20.3992ZM13.4992 24H3.59922C2.9627 24 2.35225 23.7471 1.90216 23.2971C1.45208 22.847 1.19922 22.2365 1.19922 21.6V2.4C1.19922 1.08 2.27922 0 3.59922 0H17.9992C18.6357 0 19.2462 0.252856 19.6963 0.702944C20.1464 1.15303 20.3992 1.76348 20.3992 2.4V7.2C21.0357 7.2 21.6462 7.45286 22.0963 7.90294C22.5464 8.35303 22.7992 8.96348 22.7992 9.6V21.6C22.7992 22.2365 22.5464 22.847 22.0963 23.2971C21.6462 23.7471 21.0357 24 20.3992 24H13.4992ZM13.1992 9.6V19.2H20.3992V9.6H13.1992ZM16.7992 22.8C17.1175 22.8 17.4227 22.6736 17.6477 22.4485C17.8728 22.2235 17.9992 21.9183 17.9992 21.6C17.9992 21.2817 17.8728 20.9765 17.6477 20.7515C17.4227 20.5264 17.1175 20.4 16.7992 20.4C16.481 20.4 16.1757 20.5264 15.9507 20.7515C15.7256 20.9765 15.5992 21.2817 15.5992 21.6C15.5992 21.9183 15.7256 22.2235 15.9507 22.4485C16.1757 22.6736 16.481 22.8 16.7992 22.8Z" fill="#4C87B2"/>
</g>
<defs>
<clipPath id="clip0_3683_610">
<rect width="24" height="24" fill="white"/>
</clipPath>
</defs>
</svg>
