<svg width="512" height="512" viewBox="0 0 512 512" fill="none" xmlns="http://www.w3.org/2000/svg">
<path d="M347.312 324.688L267.312 244.688C265.831 243.195 264.068 242.01 262.127 241.201C260.185 240.393 258.103 239.977 256 239.977C253.897 239.977 251.815 240.393 249.873 241.201C247.932 242.01 246.169 243.195 244.688 244.688L37.6569 451.719C34.5327 454.843 34.5327 459.908 37.6569 463.033L48.9671 474.343C52.0913 477.467 57.1567 477.467 60.2809 474.343L256 278.624L313.376 336L229.657 419.719C226.533 422.843 226.533 427.908 229.657 431.033L240.967 442.343C244.091 445.467 249.157 445.467 252.281 442.343L283.296 411.328L347.312 347.312C348.803 345.829 349.986 344.067 350.794 342.125C351.601 340.184 352.017 338.102 352.017 336C352.017 333.897 351.601 331.816 350.794 329.874C349.986 327.933 348.803 326.17 347.312 324.688Z" fill="white"/>
<path d="M464.447 151.071C460.542 147.166 454.21 147.166 450.305 151.071L368 233.376L271.984 137.344C268.995 134.363 265.446 132.003 261.542 130.399C257.637 128.795 253.453 127.98 249.232 128C240.789 128.023 232.698 131.382 226.72 137.344L135.064 229.089C131.162 232.995 131.164 239.324 135.068 243.228L143.55 251.71C147.456 255.617 153.79 255.616 157.695 251.708L249.344 159.984L356.704 267.312C358.186 268.801 359.948 269.982 361.888 270.788C363.827 271.594 365.907 272.009 368.008 272.009C370.109 272.009 372.189 271.594 374.128 270.788C376.068 269.982 377.83 268.801 379.312 267.312L472.929 173.695C476.834 169.79 476.834 163.459 472.929 159.553L464.447 151.071Z" fill="white"/>
<path d="M360 144C329.12 144 304 118.88 304 88C304 57.12 329.12 32 360 32C390.88 32 416 57.12 416 88C416 118.88 390.88 144 360 144ZM360 64C346.768 64 336 74.768 336 88C336 101.232 346.768 112 360 112C373.232 112 384 101.232 384 88C384 74.768 373.232 64 360 64Z" fill="white"/>
</svg>
