<svg width="512" height="512" viewBox="0 0 512 512" fill="none" xmlns="http://www.w3.org/2000/svg">
<path d="M128 469.332C163.346 469.332 192 440.678 192 405.332C192 369.986 163.346 341.332 128 341.332C92.6538 341.332 64 369.986 64 405.332C64 440.678 92.6538 469.332 128 469.332Z" stroke="white" stroke-width="15" stroke-linecap="round" stroke-linejoin="round"/>
<path d="M199.5 405.333H373.333C393.136 405.333 412.128 397.466 426.131 383.463C440.133 369.461 448 350.469 448 330.666C448 310.863 440.133 291.871 426.131 277.869C412.128 263.866 393.136 255.999 373.333 255.999H138.667C118.864 255.999 99.8721 248.133 85.8694 234.13C71.8666 220.127 64 201.136 64 181.333C64 161.53 71.8666 142.538 85.8694 128.535C99.8721 114.533 118.864 106.666 138.667 106.666H312" stroke="white" stroke-width="20" stroke-linecap="round" stroke-linejoin="round"/>
<path d="M384 170.666C419.346 170.666 448 142.012 448 106.666C448 71.3198 419.346 42.666 384 42.666C348.654 42.666 320 71.3198 320 106.666C320 142.012 348.654 170.666 384 170.666Z" stroke="white" stroke-width="15" stroke-linecap="round" stroke-linejoin="round"/>
</svg>
