<svg width="512" height="512" viewBox="0 0 512 512" fill="none" xmlns="http://www.w3.org/2000/svg">
<path fill-rule="evenodd" clip-rule="evenodd" d="M405.333 85.334C416.098 85.3306 426.465 89.396 434.358 96.7153C442.251 104.035 447.086 114.067 447.893 124.801L448 128.001V405.334C448.003 416.098 443.938 426.466 436.619 434.359C429.299 442.252 419.267 447.087 408.533 447.894L405.333 448.001H106.667C95.9024 448.004 85.5346 443.939 77.6416 436.619C69.7487 429.3 64.914 419.268 64.1067 408.534L64 405.334V128.001C63.9966 117.236 68.062 106.869 75.3813 98.9756C82.7005 91.0827 92.7327 86.248 103.467 85.4407L106.667 85.334H405.333ZM176.667 341.334H96.6667V413.334H176.667V341.334ZM417.333 341.334H206.333V413.334H417.333V341.334ZM176.667 230.667H96.6667V298.667H176.667V230.667ZM417.333 230.667H206.333V298.667H417.333V230.667ZM176.667 119.001H96.6667V192.001H176.667V119.001ZM417.333 119.001H206.333V192.001H417.333V119.001Z" fill="white"/>
</svg>
