<svg width="321" height="512" viewBox="0 0 321 512" fill="none" xmlns="http://www.w3.org/2000/svg">
<path d="M208.13 95.9859C234.65 95.9859 256.165 74.4891 256.165 47.993C256.165 21.4968 234.65 0 208.13 0C181.61 0 160.094 21.4968 160.094 47.993C160.094 74.4891 181.61 95.9859 208.13 95.9859ZM302.7 245.064L279.383 233.266L269.676 203.87C254.965 159.277 213.934 128.081 167.4 127.981C131.373 127.881 111.458 138.08 74.0301 153.178C52.414 161.876 34.7008 178.374 24.2931 199.371L17.5881 212.969C9.78228 228.766 16.087 247.964 31.7986 255.863C47.4103 263.761 66.4244 257.362 74.3303 241.565L81.0353 227.967C84.5379 220.968 90.3422 215.468 97.5475 212.569L124.367 201.77L109.156 262.462C103.952 283.258 109.556 305.355 124.067 321.253L184.012 386.643C191.217 394.542 196.321 404.041 198.923 414.339L217.237 487.629C221.54 504.726 238.953 515.225 256.065 510.925C273.178 506.626 283.686 489.228 279.383 472.131L257.166 383.144C254.564 372.845 249.461 363.247 242.255 355.448L196.721 305.755L213.934 237.065L219.438 253.563C224.742 269.66 236.151 282.959 251.162 290.557L274.479 302.356C290.091 310.255 309.105 303.855 317.011 288.058C324.716 272.36 318.412 252.963 302.7 245.064ZM73.6298 385.743C70.4274 393.842 65.6238 401.141 59.4192 407.24L9.38198 457.333C-3.12733 469.831 -3.12733 490.128 9.38198 502.626C21.8913 515.125 42.1063 515.125 54.6156 502.626L114.06 443.235C120.164 437.136 124.968 429.837 128.27 421.738L141.78 387.943C86.4393 327.652 103.052 346.149 94.3452 334.251L73.6298 385.743Z" fill="white"/>
</svg>
