<svg width="512" height="512" viewBox="0 0 512 512" fill="none" xmlns="http://www.w3.org/2000/svg">
<circle cx="262" cy="196" r="44.5" stroke="white" stroke-width="15"/>
<path d="M364.411 127.875C353.123 110.906 337.794 97.0071 319.804 87.4289C301.814 77.8506 281.725 72.8931 261.344 73.0017C240.963 73.1104 220.929 78.282 203.041 88.0515C185.154 97.821 169.975 111.882 158.868 128.971L172.085 137.561C181.768 122.662 195.002 110.403 210.597 101.886C226.192 93.3681 243.659 88.8593 261.428 88.7646C279.197 88.6698 296.711 92.992 312.396 101.343C328.081 109.693 341.445 121.811 351.287 136.606L364.411 127.875Z" fill="white"/>
<path d="M428.488 91.3828C410.12 64.2281 385.389 41.9784 356.45 26.5733C327.511 11.1683 295.243 3.07553 262.46 3.00053C229.676 2.92552 197.372 10.8706 168.363 26.143C139.354 41.4155 114.521 63.5518 96.0287 90.6222L108.822 99.3613C125.889 74.3774 148.807 53.9474 175.58 39.8521C202.353 25.7568 232.168 18.4242 262.424 18.4934C292.681 18.5626 322.462 26.0316 349.17 40.2493C375.878 54.4669 398.703 75.0016 415.656 100.063L428.488 91.3828Z" fill="white"/>
<path fill-rule="evenodd" clip-rule="evenodd" d="M357 218H462C481.33 218 497 233.67 497 253V458C497 477.33 481.33 493 462 493H61C41.67 493 26 477.33 26 458V253C26 233.67 41.67 218 61 218H167V203H61C33.3858 203 11 225.386 11 253V458C11 485.614 33.3858 508 61 508H462C489.614 508 512 485.614 512 458V253C512 225.386 489.614 203 462 203H357V218Z" fill="white"/>
<path d="M92 413V298H137.557C146.278 298 153.72 299.554 159.885 302.661C166.087 305.73 170.804 310.091 174.037 315.744C177.307 321.359 178.942 327.967 178.942 335.566C178.942 343.203 177.288 349.772 173.98 355.275C170.672 360.741 165.88 364.934 159.603 367.854C153.363 370.773 145.808 372.233 136.937 372.233H106.434V352.692H132.99C137.651 352.692 141.523 352.056 144.605 350.783C147.687 349.51 149.98 347.601 151.484 345.056C153.025 342.51 153.795 339.347 153.795 335.566C153.795 331.748 153.025 328.528 151.484 325.908C149.98 323.287 147.668 321.303 144.549 319.956C141.466 318.57 137.576 317.878 132.877 317.878H116.414V413H92ZM154.359 360.666L183.058 413H156.107L128.028 360.666H154.359Z" fill="white"/>
<path d="M196.195 413V298H272.65V318.046H220.609V345.449H267.575V365.495H220.609V413H196.195Z" fill="white"/>
<path d="M313.485 298V413H289.071V298H313.485Z" fill="white"/>
<path d="M374.505 413H333.571V298H374.843C386.458 298 396.456 300.302 404.839 304.907C413.221 309.474 419.667 316.044 424.178 324.616C428.726 333.189 431 343.446 431 355.388C431 367.367 428.726 377.661 424.178 386.271C419.667 394.882 413.183 401.489 404.726 406.093C396.306 410.698 386.232 413 374.505 413ZM357.985 392.167H373.49C380.707 392.167 386.777 390.895 391.701 388.349C396.663 385.766 400.384 381.779 402.865 376.389C405.384 370.961 406.643 363.96 406.643 355.388C406.643 346.89 405.384 339.946 402.865 334.555C400.384 329.165 396.682 325.196 391.758 322.651C386.834 320.105 380.763 318.833 373.546 318.833H357.985V392.167Z" fill="white"/>
</svg>
