<svg width="24" height="24" viewBox="0 0 24 24" fill="none" xmlns="http://www.w3.org/2000/svg">
<g clip-path="url(#clip0_696_316)">
<path d="M21.8672 3.92422L12.8672 0.174222C12.593 0.0604931 12.2991 0.00195313 12.0023 0.00195312C11.7055 0.00195313 11.4117 0.0604931 11.1375 0.174222L2.1375 3.92422C1.29844 4.2711 0.75 5.09141 0.75 6.00078C0.75 15.3055 6.11719 21.7367 11.1328 23.8273C11.6859 24.057 12.3094 24.057 12.8625 23.8273C16.8797 22.1539 23.25 16.3742 23.25 6.00078C23.25 5.09141 22.7016 4.2711 21.8672 3.92422ZM12.0047 20.9211L12 3.06172L20.2453 6.49766C20.0906 13.5945 16.3969 18.7367 12.0047 20.9211Z" fill="#4C87B2"/>
</g>
<defs>
<clipPath id="clip0_696_316">
<rect width="24" height="24" fill="white"/>
</clipPath>
</defs>
</svg>
