<svg width="24" height="24" viewBox="0 0 24 24" fill="none" xmlns="http://www.w3.org/2000/svg">
<path d="M14.5017 0.561562C13.7381 0.209531 12.8958 0 12 0C9.48328 0 7.33594 1.55297 6.44484 3.75H10.2506L14.5017 0.561562ZM17.5552 3.75C17.1848 2.83734 16.5862 2.05312 15.8447 1.42875L12.7495 3.75H17.5552ZM12 12C15.3136 12 18 9.31359 18 6C18 5.74312 17.9555 5.49844 17.9245 5.25H6.07547C6.04406 5.49844 6 5.74312 6 6C6 9.31359 8.68641 12 12 12ZM5.25 14.0484V24H11.2622L6.64734 13.6163C6.1662 13.7049 5.69718 13.85 5.25 14.0484ZM1.5 21.75C1.5 22.9927 2.50734 24 3.75 24V15.0112C2.385 16.1667 1.5 17.8716 1.5 19.8V21.75ZM13.5 19.5H10.9041L12.9042 24H13.5C14.7408 24 15.75 22.9908 15.75 21.75C15.75 20.5092 14.7408 19.5 13.5 19.5ZM16.2 13.5H15.4167C14.3742 13.9772 13.2192 14.25 12 14.25C10.7808 14.25 9.62578 13.9772 8.58328 13.5H8.23781L10.238 18H13.5C15.5677 18 17.25 19.6823 17.25 21.75C17.25 22.5975 16.9566 23.3714 16.4808 24H20.25C21.4927 24 22.5 22.9927 22.5 21.75V19.8C22.5 16.3205 19.6795 13.5 16.2 13.5Z" fill="#4C87B2"/>
</svg>
