<svg width="24" height="24" viewBox="0 0 24 24" fill="none" xmlns="http://www.w3.org/2000/svg">
<g clip-path="url(#clip0_699_320)">
<path d="M21.5172 20.6491C21.0991 10.72 13.0509 2.67534 3.12561 2.25755C2.75237 2.24183 2.44589 2.54071 2.44851 2.9142L2.46256 4.89986C2.46483 5.25618 2.74957 5.54846 3.10564 5.565C11.2461 5.94667 17.8283 12.5272 18.21 20.6694C18.2266 21.0254 18.5191 21.3099 18.8752 21.3125L20.8608 21.3265C21.234 21.3288 21.5329 21.0224 21.5172 20.6491ZM6.60099 17.1737C5.56872 16.1415 3.90068 16.1363 2.87483 17.1621C1.84898 18.188 1.85417 19.856 2.88644 20.8883C3.91871 21.9205 5.58674 21.9257 6.6126 20.8999C7.63845 19.874 7.63325 18.206 6.60099 17.1737ZM14.945 20.6662C14.5372 14.3424 9.42529 9.23687 3.10853 8.82973C2.73002 8.80526 2.41628 9.10616 2.42008 9.4849L2.43939 11.477C2.4428 11.824 2.71327 12.1177 3.06006 12.1441C7.61748 12.4896 11.2861 16.1674 11.6303 20.7144C11.6568 21.0612 11.9502 21.3319 12.2975 21.335L14.2895 21.3544C14.6686 21.3584 14.9695 21.0441 14.945 20.6662Z" fill="#4C87B2"/>
</g>
<defs>
<clipPath id="clip0_699_320">
<rect width="24" height="24" fill="white"/>
</clipPath>
</defs>
</svg>
