<svg width="24" height="24" viewBox="0 0 24 24" fill="none" xmlns="http://www.w3.org/2000/svg">
<path d="M22.846 14.7977L20.8491 13.6446C21.0507 12.5571 21.0507 11.4414 20.8491 10.3539L22.846 9.20082C23.0757 9.06957 23.1788 8.7977 23.1038 8.54457C22.5835 6.87583 21.6976 5.36645 20.5397 4.1102C20.3616 3.91801 20.071 3.87114 19.846 4.00239L17.8491 5.15551C17.0101 4.43364 16.0444 3.87583 14.9991 3.5102V1.20864C14.9991 0.946138 14.8163 0.71645 14.5585 0.6602C12.8382 0.275825 11.0757 0.294575 9.43974 0.6602C9.18193 0.71645 8.99912 0.946138 8.99912 1.20864V3.51489C7.95849 3.8852 6.99286 4.44301 6.14911 5.1602L4.15693 4.00708C3.92724 3.87583 3.6413 3.91801 3.46318 4.11489C2.30536 5.36645 1.41943 6.87582 0.899115 8.54926C0.819427 8.80239 0.92724 9.07426 1.15693 9.20551L3.1538 10.3586C2.95224 11.4461 2.95224 12.5618 3.1538 13.6493L1.15693 14.8024C0.92724 14.9336 0.824115 15.2055 0.899115 15.4586C1.41943 17.1274 2.30536 18.6368 3.46318 19.893C3.6413 20.0852 3.93193 20.1321 4.15693 20.0008L6.1538 18.8477C6.99286 19.5696 7.95849 20.1274 9.0038 20.493V22.7993C9.0038 23.0618 9.18662 23.2914 9.44443 23.3477C11.1647 23.7321 12.9272 23.7133 14.5632 23.3477C14.821 23.2914 15.0038 23.0618 15.0038 22.7993V20.493C16.0444 20.1227 17.0101 19.5649 17.8538 18.8477L19.8507 20.0008C20.0804 20.1321 20.3663 20.0899 20.5444 19.893C21.7022 18.6414 22.5882 17.1321 23.1085 15.4586C23.1788 15.2008 23.0757 14.9289 22.846 14.7977ZM11.9991 15.7493C9.93193 15.7493 8.24912 14.0664 8.24912 11.9993C8.24912 9.93207 9.93193 8.24926 11.9991 8.24926C14.0663 8.24926 15.7491 9.93207 15.7491 11.9993C15.7491 14.0664 14.0663 15.7493 11.9991 15.7493Z" fill="#4C87B2"/>
</svg>
