<svg width="512" height="512" viewBox="0 0 512 512" fill="none" xmlns="http://www.w3.org/2000/svg">
<path d="M288.158 150.544C288.158 168.429 273.659 182.928 255.774 182.928C237.889 182.928 223.391 168.429 223.391 150.544C223.391 132.659 237.889 118.16 255.774 118.16C273.659 118.16 288.158 132.659 288.158 150.544Z" stroke="white" stroke-width="15"/>
<path d="M321.397 150.542C321.397 186.783 292.018 216.162 255.776 216.162C219.535 216.162 190.156 186.783 190.156 150.542C190.156 114.301 219.535 84.9219 255.776 84.9219C292.018 84.9219 321.397 114.301 321.397 150.542Z" stroke="white" stroke-width="15"/>
<path d="M359.244 176.34L383.027 189.996C377.093 208.689 367.127 225.576 354.139 239.643L330.42 226.023L325.86 223.405L321.844 226.799C312.31 234.857 301.402 241.122 289.65 245.281L284.652 247.049V252.351V279.543C266.194 283.565 246.34 283.768 226.95 279.543V252.351V247.019L221.914 245.267C210.131 241.169 199.248 234.918 189.792 226.828L185.771 223.388L181.182 226.023L157.463 239.643C144.476 225.522 134.514 208.641 128.581 190.016L152.3 176.396L156.913 173.747L155.939 168.518C153.666 156.323 153.666 143.813 155.939 131.618L156.913 126.389L152.3 123.74L128.581 110.12C134.515 91.4355 144.479 74.5554 157.462 60.4933L181.118 74.1091L185.681 76.7351L189.701 73.337C199.235 65.279 210.143 59.0137 221.895 54.8553L226.893 53.0867V47.7849V20.5931C245.351 16.5707 265.204 16.3684 284.595 20.5932V47.7284V53.0605L289.631 54.8121C301.414 58.9103 312.296 65.1617 321.753 73.2515L325.774 76.6916L330.363 74.0564L354.081 60.4369C367.069 74.5574 377.03 91.4386 382.963 110.064L359.244 123.683L354.631 126.332L355.606 131.562C357.879 143.756 357.879 156.267 355.606 168.461L354.631 173.691L359.244 176.34Z" stroke="white" stroke-width="15"/>
<path d="M128.529 195.648L24.9997 233.555C19.1812 235.685 19.1848 243.916 25.0053 246.041L254.997 330.019L487.901 246.152C493.79 244.031 493.751 235.689 487.842 233.623L379.227 195.648M123.781 284.437L23.9889 320.947C18.1772 323.073 18.169 331.289 23.9764 333.427L257.202 419.282L488.994 333.466C494.8 331.317 494.773 323.096 488.954 320.984L388.248 284.437M113.335 369.428L23.2729 401.308C17.4194 403.38 17.3507 411.634 23.1688 413.803L254.353 500L488.337 413.748C494.166 411.599 494.124 403.34 488.274 401.251L399.169 369.428" stroke="white" stroke-width="15"/>
<path d="M134.068 342.328C135.519 338.351 139.919 336.302 143.897 337.753L235.761 371.262C239.738 372.713 241.787 377.114 240.336 381.092C238.885 385.069 234.484 387.117 230.506 385.667L138.643 352.158C134.665 350.707 132.617 346.306 134.068 342.328Z" fill="white"/>
<path d="M133.814 423.608C135.295 419.642 139.711 417.627 143.678 419.107L235.612 453.426C239.578 454.907 241.594 459.323 240.113 463.289C238.632 467.256 234.216 469.271 230.25 467.79L138.315 433.472C134.349 431.991 132.334 427.575 133.814 423.608Z" fill="white"/>
</svg>
