<svg id="圖層_1" data-name="圖層 1" xmlns="http://www.w3.org/2000/svg" viewBox="0 0 62.5 62.5"><defs><style>.cls-1{fill:#158be3;}</style></defs><title>icon-tick</title><path class="cls-1" d="M46.73,21.27A71.74,71.74,0,0,0,31,41.07a25.66,25.66,0,0,0-6.57-7.17,3,3,0,0,0-3.52,4.86c2.91,2.11,5.35,5.39,7.43,10a3,3,0,0,0,2.72,1.77h0a3,3,0,0,0,2.72-1.74c4.27-9.19,10.24-17.35,16.82-23a3,3,0,1,0-3.9-4.56Z" transform="translate(-4.43 -4.3)"/><path class="cls-1" d="M35.68,4.3A31.25,31.25,0,1,0,66.93,35.55,31.29,31.29,0,0,0,35.68,4.3Zm0,56A24.75,24.75,0,1,1,60.43,35.55,24.77,24.77,0,0,1,35.68,60.3Z" transform="translate(-4.43 -4.3)"/></svg>