<svg width="30" height="28" viewBox="0 0 30 28" fill="none" xmlns="http://www.w3.org/2000/svg">
<path d="M29.074 11.703C29.074 5.24 22.566 0 14.537 0C6.508 0 0 5.24 0 11.703C0 17.9 5.992 22.974 13.569 23.377C13.664 23.913 13.651 24.551 13.483 25.309C13.021 27.397 12.141 28.676 15.481 26.854C17.746 25.625 28.799 18.602 28.795 14C28.795 14 28.795 13.998 28.795 13.996C28.979 13.253 29.075 12.489 29.074 11.703ZM8.702 15.544C8.543 15.703 8.351 15.782 8.125 15.782H4.791C4.537 15.782 4.32 15.687 4.14 15.511C3.96 15.325 3.87 15.115 3.87 14.86V8.638C3.87 8.384 3.96 8.166 4.14 7.989C4.32 7.808 4.537 7.718 4.791 7.718H4.886C5.14 7.718 5.357 7.808 5.537 7.989C5.717 8.172 5.807 8.385 5.807 8.638V14.045C5.807 14.116 5.842 14.149 5.913 14.149H8.125C8.351 14.149 8.543 14.228 8.702 14.386C8.861 14.545 8.94 14.74 8.94 14.964C8.94 15.188 8.861 15.386 8.702 15.544ZM11.461 14.861C11.461 15.12 11.371 15.337 11.191 15.512C11.011 15.692 10.794 15.783 10.54 15.783H10.445C10.191 15.783 9.974 15.688 9.794 15.512C9.614 15.326 9.524 15.116 9.524 14.861V8.638C9.524 8.384 9.614 8.166 9.794 7.989C9.974 7.807 10.191 7.718 10.445 7.718H10.54C10.794 7.718 11.011 7.808 11.191 7.989C11.371 8.172 11.461 8.385 11.461 8.638V14.861ZM18.904 14.861C18.904 15.12 18.814 15.337 18.633 15.512C18.445 15.692 18.237 15.783 17.983 15.783H17.856C17.577 15.783 17.311 15.709 17.069 15.555C16.828 15.409 16.639 15.204 16.51 14.963L14.928 11.88L14.157 10.144C14.15 10.123 14.137 10.117 14.12 10.117C14.103 10.117 14.095 10.128 14.095 10.144C14.101 10.257 14.131 10.546 14.185 11.012C14.239 11.478 14.277 11.868 14.302 12.187C14.326 12.503 14.338 12.808 14.338 13.097V14.852C14.338 15.109 14.248 15.33 14.068 15.5C13.887 15.682 13.671 15.771 13.417 15.771C13.163 15.771 12.946 15.678 12.766 15.5C12.586 15.317 12.496 15.104 12.496 14.852V8.632C12.496 8.377 12.586 8.16 12.766 7.981C12.946 7.802 13.163 7.71 13.417 7.71H13.544C13.826 7.71 14.089 7.784 14.332 7.933C14.575 8.08 14.765 8.284 14.897 8.531L16.475 11.579L17.253 13.336C17.266 13.357 17.274 13.368 17.29 13.368C17.311 13.368 17.311 13.352 17.311 13.336C17.143 11.985 17.057 11.004 17.057 10.383V8.636C17.057 8.381 17.149 8.164 17.328 7.986C17.512 7.805 17.724 7.715 17.976 7.715C18.228 7.715 18.45 7.806 18.622 7.986C18.809 8.17 18.893 8.382 18.893 8.636V14.859H18.9V14.863L18.904 14.861ZM24.965 15.544C24.807 15.703 24.613 15.782 24.389 15.782H20.885C20.631 15.782 20.414 15.687 20.239 15.511C20.055 15.325 19.968 15.115 19.968 14.86V8.638C19.968 8.384 20.061 8.166 20.239 7.989C20.42 7.807 20.635 7.718 20.885 7.718H24.282C24.501 7.718 24.687 7.796 24.844 7.955C24.998 8.11 25.076 8.303 25.076 8.518C25.076 8.737 24.998 8.926 24.844 9.083C24.688 9.241 24.501 9.318 24.282 9.318H22.008C21.936 9.318 21.904 9.351 21.904 9.422V10.702C21.904 10.769 21.935 10.806 22.008 10.806H23.796C24.016 10.806 24.204 10.885 24.361 11.044C24.519 11.202 24.599 11.396 24.599 11.62C24.599 11.847 24.521 12.039 24.361 12.197C24.203 12.352 24.015 12.431 23.796 12.431H22.008C21.936 12.431 21.904 12.465 21.904 12.536V14.026C21.904 14.094 21.935 14.13 22.008 14.13H24.389C24.618 14.13 24.807 14.209 24.965 14.367C25.124 14.525 25.203 14.721 25.203 14.945C25.203 15.181 25.124 15.384 24.965 15.544Z" fill="#0F2B5B"/>
</svg>
