<svg width="1911" height="1932" viewBox="0 0 1911 1932" fill="none" xmlns="http://www.w3.org/2000/svg">
<g clip-path="url(#clip0_2717_132)">
<mask id="mask0_2717_132" style="mask-type:luminance" maskUnits="userSpaceOnUse" x="0" y="0" width="1911" height="1932">
<path d="M1911 0H0V1932H1911V0Z" fill="white"/>
</mask>
<g mask="url(#mask0_2717_132)">
<path d="M1911 0H0V1932H1911V0Z" fill="white"/>
<path d="M1754.73 379.761C1793.18 462.1 1679.65 616.997 1602.54 653.321C1525.44 689.644 1304.67 710.295 1266.22 627.955C1227.77 545.616 1419.89 454.206 1497.05 410.359C1574.2 366.512 1716.28 297.421 1754.73 379.761Z" fill="url(#paint0_linear_2717_132)" fill-opacity="0.2"/>
<path d="M866.408 1185.83C777.468 1294.21 557.834 1296.11 492.119 1241.7C426.405 1187.29 339.238 964.089 428.178 855.715C517.118 747.34 681.953 882.185 756.797 930.563C831.642 978.941 955.348 1077.46 866.408 1185.83Z" fill="url(#paint1_linear_2717_132)" fill-opacity="0.3"/>
<path d="M1825.69 830.376C1792.74 870.535 1711.35 871.238 1687 851.077C1662.65 830.916 1630.35 748.208 1663.3 708.049C1696.26 667.89 1757.34 717.858 1785.08 735.784C1812.81 753.711 1858.65 790.217 1825.69 830.376Z" fill="url(#paint2_linear_2717_132)" fill-opacity="0.5"/>
<path d="M303.983 1647.03C283.858 1671.55 234.161 1671.98 219.291 1659.67C204.422 1647.36 184.699 1596.86 204.823 1572.34C224.948 1547.81 262.246 1578.32 279.181 1589.27C296.116 1600.22 324.108 1622.51 303.983 1647.03Z" fill="url(#paint3_linear_2717_132)"/>
<path d="M1878.84 1181.73C1893.38 1339.46 1720.76 1568.05 1625.12 1576.95C1529.49 1585.85 1295.38 1541.81 1280.84 1384.09C1266.3 1226.36 1504.9 1202.74 1603.08 1181.73C1701.25 1160.73 1864.3 1024.01 1878.84 1181.73Z" fill="url(#paint4_linear_2717_132)" fill-opacity="0.15"/>
<path d="M1910.34 1270.17C1917.6 1348.86 1878.15 1445.32 1824.89 1523.26C1798.26 1562.22 1768.2 1596.52 1738.84 1621.63C1709.45 1646.76 1680.83 1662.63 1657.08 1664.84C1609.34 1669.28 1526.99 1660.51 1454.76 1630.93C1382.53 1601.34 1320.58 1551.01 1313.34 1472.43C1309.71 1433.14 1321.85 1402.23 1343.62 1377.6C1365.41 1352.96 1396.86 1334.6 1431.88 1320.49C1485.8 1298.77 1548.06 1287.16 1596.28 1278.18C1610.7 1275.49 1623.87 1273.03 1635.18 1270.61C1659.79 1265.35 1688.44 1252.84 1717.74 1239.54C1720.71 1238.19 1723.69 1236.83 1726.67 1235.48C1753.12 1223.42 1779.85 1211.25 1804.47 1203.58C1831.88 1195.04 1856.52 1192.13 1875.21 1201.08C1893.84 1210 1906.71 1230.81 1910.34 1270.17Z" fill="url(#paint5_linear_2717_132)" fill-opacity="0.3" stroke="#D0FFE3"/>
<path d="M747.897 611.239C711.851 540.993 712.49 436.716 732.848 344.419C743.024 298.283 758.121 255.175 775.996 220.849C793.882 186.505 814.511 161.028 835.715 150.051C878.33 127.989 957.97 105.169 1035.97 105.454C1113.98 105.74 1190.17 129.128 1226.17 199.278C1244.16 234.348 1244.43 267.578 1233.41 298.596C1222.39 329.635 1200.06 358.481 1172.85 384.728C1130.93 425.145 1077.53 459.305 1036.15 485.767C1023.78 493.68 1012.49 500.905 1002.9 507.403C982.042 521.535 960.136 543.902 937.913 567.255C935.663 569.619 933.409 571.994 931.153 574.372C911.109 595.494 890.858 616.834 870.888 633.199C848.654 651.419 826.878 663.377 806.22 662.101C785.616 660.83 765.924 646.37 747.897 611.239Z" stroke="#E1F7EA"/>
<path d="M680.092 1084.89C618.511 1095.64 539.946 1070.37 475.099 1032.91C442.686 1014.19 413.731 992.443 392.069 970.67C370.392 948.881 356.077 927.124 352.836 908.39C346.313 870.694 348.019 804.612 366.779 745.273C385.543 685.924 421.305 633.488 482.78 622.758C513.512 617.393 538.639 625.087 559.421 640.839C580.22 656.604 596.686 680.456 610.029 707.426C630.578 748.958 643.668 797.755 653.811 835.565C656.846 846.875 659.616 857.202 662.243 866.057C667.958 885.319 679.645 907.336 691.993 929.818C693.243 932.094 694.501 934.376 695.759 936.66C706.943 956.954 718.239 977.451 725.845 996.551C734.315 1017.82 738.152 1037.22 732.291 1052.62C726.449 1067.96 710.891 1079.51 680.092 1084.89Z" stroke="#CAF0D9"/>
<path d="M2213.4 965.59C2127.97 980.501 2019.02 945.446 1929.12 893.521C1884.18 867.565 1844.03 837.41 1813.99 807.215C1783.94 777.005 1764.06 746.812 1759.56 720.786C1750.51 668.503 1752.88 576.874 1778.89 494.596C1804.91 412.305 1854.51 339.535 1939.83 324.643C1982.49 317.198 2017.37 327.877 2046.21 349.741C2075.08 371.619 2097.92 404.711 2116.42 442.107C2144.91 499.695 2163.06 567.362 2177.12 619.772C2181.33 635.444 2185.17 649.753 2188.81 662.019C2196.72 688.694 2212.91 719.194 2230.03 750.36C2231.76 753.516 2233.5 756.678 2235.25 759.845C2250.75 787.973 2266.41 816.395 2276.96 842.882C2288.7 872.369 2294.05 899.323 2285.9 920.737C2277.76 942.1 2256.12 958.133 2213.4 965.59Z" stroke="#D0FFE3"/>
</g>
</g>
<defs>
<linearGradient id="paint0_linear_2717_132" x1="1279.97" y1="657.388" x2="1776.17" y2="425.672" gradientUnits="userSpaceOnUse">
<stop stop-color="#407BFF" stop-opacity="0.2"/>
<stop offset="1" stop-color="#407BFF" stop-opacity="0.4"/>
</linearGradient>
<linearGradient id="paint1_linear_2717_132" x1="409.335" y1="1239.45" x2="953.461" y2="1048.25" gradientUnits="userSpaceOnUse">
<stop stop-color="#407BFF" stop-opacity="0.2"/>
<stop offset="1" stop-color="#407BFF" stop-opacity="0.4"/>
</linearGradient>
<linearGradient id="paint2_linear_2717_132" x1="1656.32" y1="850.242" x2="1857.95" y2="779.395" gradientUnits="userSpaceOnUse">
<stop stop-color="#407BFF" stop-opacity="0.2"/>
<stop offset="1" stop-color="#407BFF" stop-opacity="0.4"/>
</linearGradient>
<linearGradient id="paint3_linear_2717_132" x1="200.56" y1="1659.16" x2="323.68" y2="1615.9" gradientUnits="userSpaceOnUse">
<stop stop-color="#407BFF" stop-opacity="0.2"/>
<stop offset="1" stop-color="#407BFF" stop-opacity="0.4"/>
</linearGradient>
<linearGradient id="paint4_linear_2717_132" x1="1302.66" y1="1539.98" x2="1922.61" y2="1287.41" gradientUnits="userSpaceOnUse">
<stop stop-color="#407BFF" stop-opacity="0.2"/>
<stop offset="1" stop-color="#407BFF" stop-opacity="0.4"/>
</linearGradient>
<linearGradient id="paint5_linear_2717_132" x1="1335.13" y1="1627.94" x2="1953.96" y2="1375.71" gradientUnits="userSpaceOnUse">
<stop stop-color="#407BFF" stop-opacity="0.2"/>
<stop offset="1" stop-color="#407BFF" stop-opacity="0.4"/>
</linearGradient>
<clipPath id="clip0_2717_132">
<rect width="1911" height="1932" fill="white"/>
</clipPath>
</defs>
</svg>
